<svg width="33" height="19" viewBox="0 0 33 19" fill="none" xmlns="http://www.w3.org/2000/svg">
<path d="M2.24998 18.9668H7.49993V9.19846L0 4.88892V17.2429C0 18.1968 1.00874 18.9668 2.24998 18.9668Z" fill="#4285F4"/>
<path d="M25.5001 18.967H30.75C31.995 18.967 33 18.1942 33 17.2432V4.88916L25.5001 9.1987" fill="#34A853"/>
<path d="M25.5001 1.72871V9.19858L33 4.88904V2.59062C33 0.458829 29.8238 -0.756463 27.6 0.522035" fill="#FBBC04"/>
<path d="M7.49963 9.19839V1.72852L16.4996 6.89997L25.4995 1.72852V9.19839L16.4996 14.3698" fill="#EA4335"/>
<path d="M0 2.59062V4.88904L7.49993 9.19858V1.72871L5.39995 0.522035C3.17247 -0.756463 0 0.458829 0 2.59062Z" fill="#C5221F"/>
</svg>
